<svg xmlns="http://www.w3.org/2000/svg" width="64" height="64" viewBox="0 0 64 64"><defs><style>.a{fill:#0098e3;}.b{fill:#81cfff;}</style></defs><title>circlewithprongs</title><path class="a" d="M62.16,45.86c-.87-2.24-3.37-2.51-5.58-.59a7,7,0,0,0-.61.61L50,42.45a19.09,19.09,0,0,0,.15-11.91l5.2-1.39c1,2,2.39,3.3,3.59,3,1.53-.41,2.1-3.21,1.28-6.26S57.55,20.69,56,21.1c-1.2.32-1.81,2.13-1.61,4.37L48.66,27a19.08,19.08,0,0,0-12.83-9.38V9.4c2.22-.54,3.81-1.93,3.81-3.59,0-2.1-2.56-3.81-5.71-3.81s-5.72,1.71-5.72,3.81c0,1.66,1.59,3.05,3.81,3.59v7.84a19,19,0,0,0-12.23,4.44l-4.45-4.44a5.36,5.36,0,0,0,.72-3.18c-.29-2.13-2.4-2.79-4.71-1.47s-4,4.12-3.68,6.26,2.4,2.78,4.71,1.46c.14-.07.27-.16.4-.24l4.35,4.34A19,19,0,0,0,13,36.29H7.09c-.38-2.22-1.45-3.81-2.69-3.81-1.57,0-2.85,2.56-2.85,5.71s1.28,5.72,2.85,5.72c1.24,0,2.29-1.6,2.69-3.81h6.27a19,19,0,0,0,4.24,8.62l-2.38,4.12a6.12,6.12,0,0,0-4.05,0c-2.4,1-2.67,3.72-.63,6.17s5.65,3.65,8.05,2.69,2.67-3.73.63-6.18a7,7,0,0,0-.71-.73l1.93-3.35A19.08,19.08,0,0,0,39,54l1.22,2.12a3.89,3.89,0,0,0,1.45,5.18,3.69,3.69,0,0,0,5.07-1.24l.06-.1a3.87,3.87,0,0,0-3.27-5.75l-1.14-1.95a19.16,19.16,0,0,0,6.07-6.34l5.68,3.3a5.83,5.83,0,0,0,0,3.6c.87,2.25,3.37,2.51,5.58.59S63,48.12,62.16,45.86Z"/><path class="b" d="M35.83,9.4c2.22-.54,3.81-1.93,3.81-3.59,0-2.1-2.56-3.81-5.71-3.81s-5.72,1.71-5.72,3.81c0,1.66,1.59,3.05,3.81,3.59Z"/><path class="b" d="M7.09,36.29c-.38-2.22-1.45-3.81-2.69-3.81-1.57,0-2.85,2.56-2.85,5.71s1.28,5.72,2.85,5.72c1.24,0,2.29-1.6,2.69-3.81Z"/><path class="b" d="M55.39,29.15c1,2,2.39,3.3,3.59,3,1.53-.41,2.1-3.21,1.28-6.26S57.55,20.69,56,21.1c-1.2.32-1.81,2.13-1.61,4.37Z"/><path class="b" d="M56,45.88a7,7,0,0,1,.61-.61c2.21-1.92,4.71-1.65,5.58.59s-.23,5.65-2.44,7.57-4.71,1.66-5.58-.59a5.83,5.83,0,0,1,0-3.6Z"/><path class="b" d="M43.51,54.23A3.87,3.87,0,0,1,46.78,60l-.06.1a3.69,3.69,0,0,1-5.07,1.24,3.89,3.89,0,0,1-1.45-5.18Z"/><path class="b" d="M15.22,52.84a6.12,6.12,0,0,0-4.05,0c-2.4,1-2.67,3.72-.63,6.17s5.65,3.65,8.05,2.69,2.67-3.73.63-6.18a7,7,0,0,0-.71-.73Z"/><path class="b" d="M15.34,17.24a5.36,5.36,0,0,0,.72-3.18c-.29-2.13-2.4-2.79-4.71-1.47s-4,4.12-3.68,6.26,2.4,2.78,4.71,1.46c.14-.07.27-.16.4-.24Z"/><path class="b" d="M23.4,42.86a4.77,4.77,0,1,1,4.76-4.76,4.76,4.76,0,0,1-4.76,4.76Z"/><path class="b" d="M32,29.86a4,4,0,1,1,4-4h0A4,4,0,0,1,32,29.86Z"/><path class="b" d="M39.55,47.5a5.5,5.5,0,1,1,5.5-5.5,5.5,5.5,0,0,1-5.5,5.5Z"/></svg>